<?xml version="1.0" encoding="UTF-8" standalone="no"?>
<!-- Created with Inkscape (http://www.inkscape.org/) -->

<svg
   xmlns:dc="http://purl.org/dc/elements/1.1/"
   xmlns:cc="http://creativecommons.org/ns#"
   xmlns:rdf="http://www.w3.org/1999/02/22-rdf-syntax-ns#"
   xmlns:svg="http://www.w3.org/2000/svg"
   xmlns="http://www.w3.org/2000/svg"
   xmlns:sodipodi="http://sodipodi.sourceforge.net/DTD/sodipodi-0.dtd"
   xmlns:inkscape="http://www.inkscape.org/namespaces/inkscape"
   width="75mm"
   height="14mm"
   viewBox="0 0 75 14"
   version="1.1"
   id="svg8"
   inkscape:version="0.92.3 (2405546, 2018-03-11)"
   sodipodi:docname="unsinister.svg">
  <defs
     id="defs2" />
  <sodipodi:namedview
     id="base"
     pagecolor="#ffffff"
     bordercolor="#666666"
     borderopacity="1.0"
     inkscape:pageopacity="0.0"
     inkscape:pageshadow="2"
     inkscape:zoom="2.8"
     inkscape:cx="103.52687"
     inkscape:cy="-54.306354"
     inkscape:document-units="mm"
     inkscape:current-layer="layer1"
     showgrid="false"
     inkscape:window-width="1920"
     inkscape:window-height="1017"
     inkscape:window-x="1912"
     inkscape:window-y="-8"
     inkscape:window-maximized="1" />
  <metadata
     id="metadata5">
    <rdf:RDF>
      <cc:Work
         rdf:about="">
        <dc:format>image/svg+xml</dc:format>
        <dc:type
           rdf:resource="http://purl.org/dc/dcmitype/StillImage" />
        <dc:title></dc:title>
      </cc:Work>
    </rdf:RDF>
  </metadata>
  <g
     inkscape:label="Layer 1"
     inkscape:groupmode="layer"
     id="layer1"
     transform="translate(0,-283)">
    <path
       style="fill:none;fill-rule:evenodd;stroke:none;stroke-width:0.26458332px;stroke-linecap:butt;stroke-linejoin:miter;stroke-opacity:1"
       d="m 17.481399,85.427827 20.788691,-1.511906 0.377975,1.511906 -8.409971,0.377976 -8.126487,1.322916 -4.252232,-0.188989 z"
       id="path4546"
       inkscape:connector-curvature="0" />
    <rect
       style="opacity:0;fill:#817d7d;fill-opacity:1;stroke:none;stroke-width:1.37599993;stroke-linecap:round;stroke-linejoin:miter;stroke-miterlimit:4;stroke-dasharray:none;stroke-dashoffset:0;stroke-opacity:1"
       id="rect4559"
       width="32.033482"
       height="10.394345"
       x="12.662203"
       y="-5.3809528" />
    <g
       aria-label="unsinister"
       style="font-style:normal;font-variant:normal;font-weight:normal;font-stretch:normal;font-size:448.80575562px;line-height:1.25;font-family:Conformity;-inkscape-font-specification:Conformity;letter-spacing:0px;word-spacing:0px;fill:#f67629;fill-opacity:1;stroke:none;stroke-width:11.22014427"
       id="text834"
       transform="matrix(0.0250533,0,0,0.0250533,-3.8060354,213.14295)">
      <path
         d="m 299.27557,2963.1747 q -4.18886,85.4526 18.43096,155.8253 21.78204,-15.9176 30.15974,-48.5907 5.02663,-20.1065 6.70217,-61.1572 2.51331,-41.8886 6.70217,-57.8062 10.05325,-14.2421 32.67306,-14.2421 16.75542,0 35.18637,7.5399 24.29536,21.7821 29.32198,72.0483 5.8644,60.3195 15.07988,77.0749 0.83777,24.2954 22.61981,69.535 21.78204,45.2396 21.78204,68.6972 0,25.9709 -19.26873,48.5907 -10.05325,11.7288 -20.94427,11.7288 -7.53994,0 -10.05325,-5.8644 -18.43096,-10.891 -35.18637,-39.3752 -26.80867,-46.0774 -27.64644,-46.9152 -21.78204,12.5666 -42.72631,73.7238 -19.26873,54.4552 -42.72631,54.4552 -15.91765,0 -38.53746,-16.7555 -29.32198,-21.782 -39.37523,-69.5349 -8.37771,-40.213 -16.75541,-79.5883 l -25.13313,-224.5225 q 19.26873,-12.5666 46.0774,-12.5666 47.75293,0 53.61733,37.6997 z"
         style="font-size:837.77081299px;fill:#f67629;fill-opacity:1;stroke-width:11.22014427"
         id="path5738"
         inkscape:connector-curvature="0" />
      <path
         d="m 792.25134,2971.5524 q 12.56656,34.3486 31.83529,127.3411 16.75542,82.1016 36.02414,125.6657 3.35109,52.7795 -21.78204,61.995 -46.07739,-4.1888 -61.99504,-51.9418 -11.72879,-41.8885 -22.61981,-83.7771 -5.02662,-70.3727 -34.3486,-129.0167 -38.53746,46.9152 -47.75294,139.9078 -4.18885,76.2371 -9.21548,153.312 -15.91764,12.5666 -33.51083,12.5666 -16.75542,0 -33.51083,-12.5666 -16.75542,-23.4576 -20.94427,-46.9151 -2.51332,-15.0799 -1.67554,-54.4552 -0.83778,-5.0266 -16.75542,-105.5591 -9.21548,-63.6706 -22.61981,-103.0458 -1.67554,-15.9176 15.07987,-20.9443 9.21548,-2.5133 29.32198,-1.6755 13.40433,-2.5133 30.15975,10.0533 17.59319,11.7287 26.80867,12.5665 21.78204,-50.2662 67.85943,-79.5882 67.02167,-4.1889 89.64148,46.0774 z"
         style="font-size:837.77081299px;fill:#f67629;fill-opacity:1;stroke-width:11.22014427"
         id="path5740"
         inkscape:connector-curvature="0" />
      <path
         d="m 1232.2512,3242.9901 q -20.9443,25.9709 -58.644,41.0508 -22.6198,10.0532 -71.2105,21.782 -48.5907,10.8911 -71.2105,20.1065 -18.431,1.6756 -36.86194,1.6756 -54.4551,0 -92.99256,-15.9177 -37.69968,-15.9176 -37.69968,-39.3752 0,-4.1888 1.67554,-8.3777 -0.83777,-2.5133 -0.83777,-5.0266 0,-15.0799 32.67306,-15.0799 12.56656,0 36.86192,4.1889 25.13312,4.1888 37.69968,4.1888 71.21055,0 143.25885,-44.4018 5.8644,-0.8378 5.8644,-7.54 0,-6.7021 -5.8644,-13.4043 -72.8861,-33.5108 -124.82789,-77.9127 -51.10402,-45.2396 -51.10402,-73.7238 0,-7.54 5.02663,-13.4044 6.70216,-19.2687 36.86191,-46.0774 30.99757,-27.6464 61.99507,-41.8885 10.891,-8.3777 30.1597,-8.3777 25.1331,0 42.7263,13.4043 3.3511,6.7022 3.3511,13.4044 0,20.1065 -40.213,52.7795 -40.213,31.8353 -40.213,46.0774 0,21.7821 51.104,41.0508 46.0774,24.2953 92.1548,49.4285 52.7796,34.3486 52.7796,81.2637 0,9.2155 -2.5133,20.1065 z"
         style="font-size:837.77081299px;fill:#f67629;fill-opacity:1;stroke-width:11.22014427"
         id="path5742"
         inkscape:connector-curvature="0" />
      <path
         d="m 1344.3292,2833.3202 q 0,27.6464 -1.6756,32.6731 -4.1888,18.4309 -20.9442,20.1065 -13.4044,8.3777 -25.1331,8.3777 -19.2688,0 -37.6997,-21.7821 -13.4044,-20.1065 -26.8087,-39.3752 -1.6755,-20.1065 14.2421,-30.9975 15.9177,-10.891 39.3752,-10.891 23.4576,0 41.0508,10.891 17.5932,10.891 17.5932,30.9975 z m 0,164.2031 21.782,313.3263 q -19.2687,16.7554 -38.5374,16.7554 -18.431,0 -36.0242,-16.7554 l -30.1597,-30.1598 -29.322,-298.2464 q 15.9176,-22.6198 46.9152,-22.6198 48.5907,0 65.3461,37.6997 z"
         style="font-size:837.77081299px;fill:#f67629;fill-opacity:1;stroke-width:11.22014427"
         id="path5744"
         inkscape:connector-curvature="0" />
      <path
         d="m 1631.6584,2971.5524 q 12.5666,34.3486 31.8353,127.3411 16.7555,82.1016 36.0242,125.6657 3.3511,52.7795 -21.7821,61.995 -46.0774,-4.1888 -61.995,-51.9418 -11.7288,-41.8885 -22.6198,-83.7771 -5.0266,-70.3727 -34.3486,-129.0167 -38.5375,46.9152 -47.753,139.9078 -4.1888,76.2371 -9.2154,153.312 -15.9177,12.5666 -33.5109,12.5666 -16.7554,0 -33.5108,-12.5666 -16.7554,-23.4576 -20.9443,-46.9151 -2.5133,-15.0799 -1.6755,-54.4552 -0.8378,-5.0266 -16.7554,-105.5591 -9.2155,-63.6706 -22.6198,-103.0458 -1.6756,-15.9176 15.0798,-20.9443 9.2155,-2.5133 29.322,-1.6755 13.4043,-2.5133 30.1598,10.0533 17.5932,11.7287 26.8086,12.5665 21.7821,-50.2662 67.8595,-79.5882 67.0216,-4.1889 89.6414,46.0774 z"
         style="font-size:837.77081299px;fill:#f67629;fill-opacity:1;stroke-width:11.22014427"
         id="path5746"
         inkscape:connector-curvature="0" />
      <path
         d="m 1827.0291,2833.3202 q 0,27.6464 -1.6755,32.6731 -4.1889,18.4309 -20.9443,20.1065 -13.4043,8.3777 -25.1331,8.3777 -19.2687,0 -37.6997,-21.7821 -13.4043,-20.1065 -26.8086,-39.3752 -1.6756,-20.1065 14.2421,-30.9975 15.9176,-10.891 39.3752,-10.891 23.4576,0 41.0508,10.891 17.5931,10.891 17.5931,30.9975 z m 0,164.2031 21.7821,313.3263 q -19.2687,16.7554 -38.5375,16.7554 -18.4309,0 -36.0241,-16.7554 l -30.1598,-30.1598 -29.3219,-298.2464 q 15.9176,-22.6198 46.9151,-22.6198 48.5907,0 65.3461,37.6997 z"
         style="font-size:837.77081299px;fill:#f67629;fill-opacity:1;stroke-width:11.22014427"
         id="path5748"
         inkscape:connector-curvature="0" />
      <path
         d="m 2212.3776,3242.9901 q -20.9443,25.9709 -58.644,41.0508 -22.6198,10.0532 -71.2105,21.782 -48.5907,10.8911 -71.2105,20.1065 -18.431,1.6756 -36.8619,1.6756 -54.4551,0 -92.9926,-15.9177 -37.6997,-15.9176 -37.6997,-39.3752 0,-4.1888 1.6756,-8.3777 -0.8378,-2.5133 -0.8378,-5.0266 0,-15.0799 32.6731,-15.0799 12.5665,0 36.8619,4.1889 25.1331,4.1888 37.6997,4.1888 71.2105,0 143.2588,-44.4018 5.8644,-0.8378 5.8644,-7.54 0,-6.7021 -5.8644,-13.4043 -72.8861,-33.5108 -124.8279,-77.9127 -51.104,-45.2396 -51.104,-73.7238 0,-7.54 5.0266,-13.4044 6.7022,-19.2687 36.8619,-46.0774 30.9976,-27.6464 61.9951,-41.8885 10.891,-8.3777 30.1597,-8.3777 25.1331,0 42.7263,13.4043 3.3511,6.7022 3.3511,13.4044 0,20.1065 -40.213,52.7795 -40.213,31.8353 -40.213,46.0774 0,21.7821 51.104,41.0508 46.0774,24.2953 92.1548,49.4285 52.7796,34.3486 52.7796,81.2637 0,9.2155 -2.5133,20.1065 z"
         style="font-size:837.77081299px;fill:#f67629;fill-opacity:1;stroke-width:11.22014427"
         id="path5750"
         inkscape:connector-curvature="0" />
      <path
         d="m 2471.9032,2986.6323 q 0,21.782 -20.9443,33.5108 -59.4817,23.4576 -59.4817,38.5374 0,0.8378 1.6755,1.6756 0,3.3511 6.7022,77.0749 4.1889,52.7796 20.1065,84.6149 18.431,-3.3511 30.9975,-34.3486 13.4044,-31.8353 25.1332,-31.8353 8.3777,0 21.782,10.0532 17.5932,13.4043 17.5932,41.8886 0,15.9176 -6.7022,29.3219 -13.4043,27.6465 -37.6997,56.1307 -24.2953,28.4842 -40.213,33.5108 -27.6464,4.1889 -54.4551,-15.0799 -25.9709,-19.2687 -29.322,-46.0774 -5.8644,-9.2154 -27.6464,-172.5807 -10.891,-6.7022 -27.6464,-6.7022 -6.7022,0 -20.9443,1.6755 -14.2421,0.8378 -20.9443,0.8378 -36.8619,0 -47.7529,-34.3486 -1.6755,-2.5133 -1.6755,-5.8644 0,-15.0799 31.8352,-32.6731 32.6731,-18.4309 76.2372,-28.4842 -16.7554,-123.99 -5.8644,-184.3095 10.0532,-11.7288 24.2953,-11.7288 33.5109,0 51.9418,44.4018 0,-23.4576 11.7288,133.2056 29.322,-14.2421 48.5907,-14.2421 32.6731,0 32.6731,31.8353 z"
         style="font-size:837.77081299px;fill:#f67629;fill-opacity:1;stroke-width:11.22014427"
         id="path5752"
         inkscape:connector-curvature="0" />
      <path
         d="m 2791.408,3277.3387 q -12.5666,22.6198 -44.4018,36.8619 -31.8353,13.4044 -66.1839,13.4044 -16.7555,0 -31.8353,-3.3511 -31.8353,-0.8378 -71.2106,-33.5108 -38.5374,-33.5109 -52.7795,-73.7239 -17.5932,-30.1597 -17.5932,-80.426 0,-87.1281 41.8885,-144.9343 5.0267,-18.431 35.1864,-39.3752 30.9975,-20.9443 61.9951,-26.8087 48.5907,0 92.1547,32.6731 43.5641,31.8352 46.9152,70.3727 1.6756,4.1889 1.6756,10.891 0,23.4576 -13.4044,37.6997 -41.0508,23.4576 -96.3436,42.7263 -54.4551,18.431 -79.5883,17.5932 -3.351,30.9975 13.4044,65.3461 17.5932,33.5109 41.0508,44.4019 6.7021,9.2155 21.782,9.2155 21.782,0 39.3752,-15.9177 22.6198,-41.8885 60.3195,-41.8885 10.0533,0 17.5932,5.8644 17.5932,3.3511 17.5932,26.8086 0,22.6198 -17.5932,46.0774 z m -89.6415,-259.7089 q -24.2953,-44.4019 -43.5641,-37.6997 -62.8328,24.2953 -62.8328,51.9418 0,9.2155 9.2155,14.2421 40.213,1.6755 97.1814,-28.4842 z"
         style="font-size:837.77081299px;fill:#f67629;fill-opacity:1;stroke-width:11.22014427"
         id="path5754"
         inkscape:connector-curvature="0" />
      <path
         d="m 3110.9523,3021.8186 q 4.1888,6.7022 4.1888,16.7554 0,23.4576 -19.2687,35.1864 -8.3777,6.7022 -20.1065,6.7022 -29.322,0 -47.753,-30.9975 -5.0266,-15.0799 -16.7554,-25.9709 -11.7288,-10.891 -20.9442,-9.2155 -22.6199,5.0266 -37.6997,24.2953 -15.0799,18.431 -15.0799,39.3753 0,7.5399 2.5133,14.2421 -5.0266,41.0508 -5.0266,88.8037 0,69.535 10.891,126.5034 0.8378,20.1065 -43.5641,20.1065 -10.0532,0 -20.1065,-1.6756 -40.213,-17.5931 -40.213,-68.6972 0,-9.2154 1.6756,-28.4842 1.6755,-20.1065 1.6755,-30.1597 0,-23.4576 -6.7022,-37.6997 -11.7288,-31.8353 -16.7554,-84.6149 -5.0266,-42.7263 -9.2155,-86.2904 8.3777,-20.1065 31.8353,-20.1065 13.4044,0 31.8353,6.7022 15.0799,5.8644 15.0799,15.9177 3.3511,1.6755 9.2155,-6.7022 6.7021,-8.3777 10.891,-20.1065 9.2155,-16.7554 23.4576,-28.4842 14.2421,-12.5666 23.4576,-10.891 5.0266,-0.8378 10.891,-0.8378 35.1864,0 77.9127,29.322 43.5641,28.4842 63.6706,67.0216 z"
         style="font-size:837.77081299px;fill:#f67629;fill-opacity:1;stroke-width:11.22014427"
         id="path5756"
         inkscape:connector-curvature="0" />
    </g>
    <g
       aria-label="/"
       transform="matrix(0.00695949,0.02104665,-0.02764169,0.00659579,-3.8060354,213.14295)"
       style="font-style:normal;font-variant:normal;font-weight:normal;font-stretch:normal;font-size:789.83508301px;line-height:1.25;font-family:Conformity;-inkscape-font-specification:Conformity;letter-spacing:0px;word-spacing:0px;fill:#3b6b86;fill-opacity:1;stroke:none;stroke-width:19.74587631"
       id="text5692">
      <path
         d="m 3743.9209,164.50907 q -26.8544,120.84477 -97.9396,289.86948 -116.1058,275.65244 -118.4753,280.39145 -15.0068,6.31868 -33.173,6.31868 -52.1291,0 -56.8682,-41.86126 -3.1593,-29.22389 13.4272,-60.8173 17.3764,-26.85439 34.7528,-53.70878 94.7802,-214.83514 101.0989,-227.47251 54.4986,-131.11262 84.5123,-234.58102 12.6374,-13.42719 23.6951,-13.42719 14.217,0 28.434,22.11538 10.2679,16.58654 20.5358,33.17307 z"
         style="fill:#3b6b86;fill-opacity:1;stroke-width:19.74587631"
         id="path5735"
         inkscape:connector-curvature="0" />
    </g>
  </g>
</svg>
