<?xml version="1.0" encoding="UTF-8" standalone="no"?>
<!-- Created with Inkscape (http://www.inkscape.org/) -->

<svg
   xmlns:dc="http://purl.org/dc/elements/1.1/"
   xmlns:cc="http://creativecommons.org/ns#"
   xmlns:rdf="http://www.w3.org/1999/02/22-rdf-syntax-ns#"
   xmlns:svg="http://www.w3.org/2000/svg"
   xmlns="http://www.w3.org/2000/svg"
   xmlns:sodipodi="http://sodipodi.sourceforge.net/DTD/sodipodi-0.dtd"
   xmlns:inkscape="http://www.inkscape.org/namespaces/inkscape"
   width="75mm"
   height="14mm"
   viewBox="0 0 75 14"
   version="1.1"
   id="svg8"
   inkscape:version="0.92.2 (5c3e80d, 2017-08-06)"
   sodipodi:docname="unsinister.svg">
  <defs
     id="defs2" />
  <sodipodi:namedview
     id="base"
     pagecolor="#ffffff"
     bordercolor="#666666"
     borderopacity="1.0"
     inkscape:pageopacity="0.0"
     inkscape:pageshadow="2"
     inkscape:zoom="2.8"
     inkscape:cx="161.56258"
     inkscape:cy="-54.306354"
     inkscape:document-units="mm"
     inkscape:current-layer="layer1"
     showgrid="false"
     inkscape:window-width="1920"
     inkscape:window-height="1018"
     inkscape:window-x="1672"
     inkscape:window-y="-8"
     inkscape:window-maximized="1" />
  <metadata
     id="metadata5">
    <rdf:RDF>
      <cc:Work
         rdf:about="">
        <dc:format>image/svg+xml</dc:format>
        <dc:type
           rdf:resource="http://purl.org/dc/dcmitype/StillImage" />
        <dc:title></dc:title>
      </cc:Work>
    </rdf:RDF>
  </metadata>
  <g
     inkscape:label="Layer 1"
     inkscape:groupmode="layer"
     id="layer1"
     transform="translate(0,-283)">
    <path
       style="fill:none;fill-rule:evenodd;stroke:none;stroke-width:0.26458332px;stroke-linecap:butt;stroke-linejoin:miter;stroke-opacity:1"
       d="m 17.481399,85.427827 20.788691,-1.511906 0.377975,1.511906 -8.409971,0.377976 -8.126487,1.322916 -4.252232,-0.188989 z"
       id="path4546"
       inkscape:connector-curvature="0" />
    <g
       id="g4557"
       clip-path="none"
       style="fill:#4c4344;fill-opacity:1"
       transform="translate(-0.79220295,279.48888)">
      <g
         aria-label="unsinister"
         transform="matrix(0.26458333,0,0,0.26458333,-17.548216,-73.36079)"
         style="font-style:normal;font-variant:normal;font-weight:normal;font-stretch:normal;font-size:40px;line-height:125%;font-family:Rockwell;-inkscape-font-specification:Rockwell;letter-spacing:0px;word-spacing:0px;fill:#4c4344;fill-opacity:1;stroke:none;stroke-width:1px;stroke-linecap:butt;stroke-linejoin:miter;stroke-opacity:1"
         id="flowRoot4504">
        <path
           d="m 101.50651,333.78785 h 5.08333 l -1.58333,6.79167 H 92.339845 l 1.125,-4.66667 q -7.458334,5.33334 -13.250001,5.33334 -4.333333,0 -6.875,-2.83334 -2.541667,-2.83333 -2.541667,-6.08333 0,-2.45833 1.375,-8.25 l 3.958334,-17.04167 h -5 l 1.625,-6.79166 h 12.541667 l -5.166667,21.875 q -1.541667,6.625 -1.541667,8.16666 0,1.79167 1.208334,2.91667 1.25,1.125 3.083333,1.125 4.416667,0 12.333334,-5.875 l 4.999995,-21.41667 h -5.999995 l 1.583333,-6.79166 h 13.541672 z"
           style="font-style:italic;font-variant:normal;font-weight:normal;font-stretch:normal;font-size:85.33333588px;line-height:125%;font-family:Rockwell;-inkscape-font-specification:'Rockwell Italic';letter-spacing:-9.58999825px;fill:#4c4344;fill-opacity:1"
           id="path4684"
           inkscape:connector-curvature="0" />
        <path
           d="m 111.08318,300.24619 h 12.83333 l -1.08333,4.70833 q 7.54167,-5.33333 13.125,-5.33333 4.45833,0 6.83333,2.91666 2.41667,2.91667 2.41667,6.25 0,2.79167 -1.125,7.58334 l -4.08333,17.41666 h 5.95833 l -1.625,6.79167 h -13.45833 l 5.79166,-24.70833 q 0.91667,-3.95834 0.91667,-4.95834 0,-1.83333 -1.20833,-3 -1.20834,-1.20833 -2.95834,-1.20833 -4.625,0 -12.25,5.33333 l -5.125,21.75 h 6.04167 l -1.58333,6.79167 h -18.37501 l 1.58334,-6.79167 h 4.79167 l 6.29166,-26.75 h -5.29166 z"
           style="font-style:italic;font-variant:normal;font-weight:normal;font-stretch:normal;font-size:85.33333588px;line-height:125%;font-family:Rockwell;-inkscape-font-specification:'Rockwell Italic';letter-spacing:-9.58999825px;fill:#4c4344;fill-opacity:1"
           id="path4686"
           inkscape:connector-curvature="0" />
        <path
           d="m 141.70151,329.32952 h 6.83334 q 0,2.83333 2.5,4.375 2.5,1.54167 6.54166,1.54167 3.70834,0 5.70834,-1.5 2.04166,-1.5 2.04166,-3.66667 0,-2.04167 -1.75,-3.54167 -1.75,-1.54166 -6.16666,-3.25 -4.45834,-1.75 -6.75,-3.125 -2.29167,-1.375 -3.79167,-3.79166 -1.5,-2.41667 -1.5,-5.125 0,-4.66667 3.875,-8.125 3.875,-3.5 10.66667,-3.5 6.33333,0 10.41666,3.5 l 0.83334,-2.875 h 6.70833 l -2.625,11.20833 h -6.75 q -0.0833,-3.08333 -2.79167,-4.375 -2.70833,-1.29167 -5.91666,-1.29167 -3.33334,0 -5.25,1.33334 -1.875,1.33333 -1.875,3.33333 0,1.625 1.125,2.70833 1.125,1.04167 4.29166,2.25 9,3.45834 11.875,6.58334 2.875,3.125 2.875,7.54166 0,5.25 -4.08333,8.5 -4.04167,3.20834 -11.91667,3.20834 -7.33333,0 -10.375,-3.29167 l -0.58333,2.625 h -6.83333 z"
           style="font-style:italic;font-variant:normal;font-weight:normal;font-stretch:normal;font-size:85.33333588px;line-height:125%;font-family:Rockwell;-inkscape-font-specification:'Rockwell Italic';letter-spacing:-9.58999825px;fill:#4c4344;fill-opacity:1"
           id="path4688"
           inkscape:connector-curvature="0" />
        <path
           d="m 173.56985,333.78785 6.29167,-26.75 h -5.54167 l 1.58333,-6.79166 h 13.08334 l -7.875,33.54166 h 5.875 l -1.58334,6.79167 h -17.875 l 1.58334,-6.79167 z"
           style="font-style:italic;font-variant:normal;font-weight:normal;font-stretch:normal;font-size:85.33333588px;line-height:125%;font-family:Rockwell;-inkscape-font-specification:'Rockwell Italic';letter-spacing:-9.58999825px;fill:#4c4344;fill-opacity:1"
           id="path4690"
           inkscape:connector-curvature="0"
           sodipodi:nodetypes="ccccccccccc" />
        <path
           d="m 189.97985,300.24619 h 12.83334 l -1.08334,4.70833 q 7.54167,-5.33333 13.125,-5.33333 4.45834,0 6.83334,2.91666 2.41666,2.91667 2.41666,6.25 0,2.79167 -1.125,7.58334 l -4.08333,17.41666 h 5.95833 l -1.625,6.79167 h -13.45833 l 5.79167,-24.70833 q 0.91666,-3.95834 0.91666,-4.95834 0,-1.83333 -1.20833,-3 -1.20833,-1.20833 -2.95833,-1.20833 -4.625,0 -12.25,5.33333 l -5.125,21.75 h 6.04166 l -1.58333,6.79167 h -18.375 l 1.58333,-6.79167 h 4.79167 l 6.29167,-26.75 h -5.29167 z"
           style="font-style:italic;font-variant:normal;font-weight:normal;font-stretch:normal;font-size:85.33333588px;line-height:125%;font-family:Rockwell;-inkscape-font-specification:'Rockwell Italic';letter-spacing:-9.58999825px;fill:#4c4344;fill-opacity:1"
           id="path4692"
           inkscape:connector-curvature="0" />
        <path
           d="m 225.55653,333.78785 6.29167,-26.75 h -5.54167 l 1.58333,-6.79166 h 13.08334 l -7.875,33.54166 h 5.875 l -1.58334,6.79167 h -17.875 l 1.58334,-6.79167 z"
           style="font-style:italic;font-variant:normal;font-weight:normal;font-stretch:normal;font-size:85.33333588px;line-height:125%;font-family:Rockwell;-inkscape-font-specification:'Rockwell Italic';letter-spacing:-9.58999825px;fill:#4c4344;fill-opacity:1"
           id="path4694"
           inkscape:connector-curvature="0"
           sodipodi:nodetypes="ccccccccccc" />
        <path
           d="m 235.0082,329.32952 h 6.83333 q 0,2.83333 2.5,4.375 2.5,1.54167 6.54167,1.54167 3.70833,0 5.70833,-1.5 2.04167,-1.5 2.04167,-3.66667 0,-2.04167 -1.75,-3.54167 -1.75,-1.54166 -6.16667,-3.25 -4.45833,-1.75 -6.75,-3.125 -2.29166,-1.375 -3.79166,-3.79166 -1.5,-2.41667 -1.5,-5.125 0,-4.66667 3.875,-8.125 3.875,-3.5 10.66666,-3.5 6.33334,0 10.41667,3.5 l 0.83333,-2.875 h 6.70834 l -2.625,11.20833 h -6.75 q -0.0833,-3.08333 -2.79167,-4.375 -2.70833,-1.29167 -5.91667,-1.29167 -3.33333,0 -5.25,1.33334 -1.875,1.33333 -1.875,3.33333 0,1.625 1.125,2.70833 1.125,1.04167 4.29167,2.25 9,3.45834 11.875,6.58334 2.875,3.125 2.875,7.54166 0,5.25 -4.08333,8.5 -4.04167,3.20834 -11.91667,3.20834 -7.33333,0 -10.375,-3.29167 l -0.58333,2.625 h -6.83334 z"
           style="font-style:italic;font-variant:normal;font-weight:normal;font-stretch:normal;font-size:85.33333588px;line-height:125%;font-family:Rockwell;-inkscape-font-specification:'Rockwell Italic';letter-spacing:-9.58999825px;fill:#4c4344;fill-opacity:1"
           id="path4696"
           inkscape:connector-curvature="0" />
        <path
           d="m 280.75152,300.24619 h 5.70833 l -1.58333,6.79166 h -5.70833 l -4.45834,19 c -0.80555,3.44445 -1.20833,5.58334 -1.20833,6.41667 0,1.88889 1,2.83333 3,2.83333 1.38889,0 3.48611,-0.77778 6.29167,-2.33333 l -1.625,6.91667 c -2.55556,1.25 -5.04167,1.875 -7.45834,1.875 -2.27777,0 -4.12499,-0.73611 -5.54166,-2.20834 -1.41667,-1.47222 -2.125,-3.54166 -2.125,-6.20833 0,-1.80555 0.75,-5.80555 2.25,-12 l 3.33333,-14.29167 h -4.58333 l 1.58333,-6.79166 h 4.58333 l 1.91667,-8 7.5037,0.0938 z"
           style="font-style:italic;font-variant:normal;font-weight:normal;font-stretch:normal;font-size:85.33333588px;line-height:125%;font-family:Rockwell;-inkscape-font-specification:'Rockwell Italic';letter-spacing:-9.58999825px;fill:#4c4344;fill-opacity:1"
           id="path4698"
           inkscape:connector-curvature="0"
           sodipodi:nodetypes="cccccssccscscccccccc" />
        <path
           d="m 319.99486,322.24619 h -31.66667 q -0.29167,1.20833 -0.29167,2.29166 0,5 2.875,7.79167 2.875,2.79167 7.20834,2.79167 6.04167,0 10.25,-5.75 l 7.875,3.375 q -2.375,3.95833 -7.375,6.5 -5,2.5 -10.66667,2.5 -8.70833,0 -13.54167,-5.04167 -4.83333,-5.04167 -4.83333,-12.91667 0,-6.29166 3.16667,-11.91666 3.20833,-5.625 8.54166,-9.16667 5.33334,-3.58333 11.66667,-3.58333 7.66667,0 12.5,5.04166 4.875,5 4.875,13.08334 0,2.625 -0.58333,5 z m -7.125,-5.66667 q 0.125,-1.29167 0.125,-2.08333 0,-3.33334 -2.66667,-6.04167 -2.625,-2.75 -7,-2.75 -4.45833,0 -8.08333,2.95833 -3.58334,2.91667 -5.41667,7.91667 z"
           style="font-style:italic;font-variant:normal;font-weight:normal;font-stretch:normal;font-size:85.33333588px;line-height:125%;font-family:Rockwell;-inkscape-font-specification:'Rockwell Italic';letter-spacing:-9.58999825px;fill:#4c4344;fill-opacity:1"
           id="path4700"
           inkscape:connector-curvature="0" />
        <path
           d="m 326.8632,333.78785 h 6.66667 l -1.625,6.79167 H 312.3632 l 1.58333,-6.79167 h 5.29167 l 6.20833,-26.75 h -6.25 l 1.66667,-6.79166 h 13.08333 l -2.66666,11.41666 q 3.79166,-6.33333 8.08333,-9.16666 4.33333,-2.875 10.16667,-2.875 h 1.79166 l -1.75,7.41666 q -1.125,-0.125 -1.91666,-0.125 -5.29167,0 -9.16667,2.45834 -3.875,2.41666 -6.16667,6.58333 -2.29166,4.16667 -3.79166,10.58333 z"
           style="font-style:italic;font-variant:normal;font-weight:normal;font-stretch:normal;font-size:85.33333588px;line-height:125%;font-family:Rockwell;-inkscape-font-specification:'Rockwell Italic';letter-spacing:-9.58999825px;fill:#4c4344;fill-opacity:1"
           id="path4702"
           inkscape:connector-curvature="0" />
      </g>
      <path
         inkscape:connector-curvature="0"
         id="path4550"
         d="M 1.1788016,10.230828 H 23.059498 v 1.46466 H 1.204127 Z"
         style="fill:#4c4344;fill-opacity:1;fill-rule:evenodd;stroke:none;stroke-width:0.27394536px;stroke-linecap:butt;stroke-linejoin:miter;stroke-opacity:1" />
    </g>
    <rect
       style="opacity:0;fill:#817d7d;fill-opacity:1;stroke:none;stroke-width:1.37599993;stroke-linecap:round;stroke-linejoin:miter;stroke-miterlimit:4;stroke-dasharray:none;stroke-dashoffset:0;stroke-opacity:1"
       id="rect4559"
       width="32.033482"
       height="10.394345"
       x="12.662203"
       y="-5.3809528" />
  </g>
</svg>
