<?xml version="1.0" encoding="UTF-8" standalone="no"?>
<svg
   xmlns:dc="http://purl.org/dc/elements/1.1/"
   xmlns:cc="http://creativecommons.org/ns#"
   xmlns:rdf="http://www.w3.org/1999/02/22-rdf-syntax-ns#"
   xmlns:svg="http://www.w3.org/2000/svg"
   xmlns="http://www.w3.org/2000/svg"
   xmlns:sodipodi="http://sodipodi.sourceforge.net/DTD/sodipodi-0.dtd"
   xmlns:inkscape="http://www.inkscape.org/namespaces/inkscape"
   version="1.0"
   width="318px"
   height="365px"
   viewBox="0 0 3180 3650"
   preserveAspectRatio="xMidYMid meet"
   id="svg4766"
   sodipodi:docname="unsinisterlogo.svg"
   inkscape:version="0.92.2 (5c3e80d, 2017-08-06)"
   inkscape:export-filename="D:\Dev\unsinister\unsinisterlogo.png"
   inkscape:export-xdpi="210.41096"
   inkscape:export-ydpi="210.41096">
  <metadata
     id="metadata4772">
    <rdf:RDF>
      <cc:Work
         rdf:about="">
        <dc:format>image/svg+xml</dc:format>
        <dc:type
           rdf:resource="http://purl.org/dc/dcmitype/StillImage" />
      </cc:Work>
    </rdf:RDF>
  </metadata>
  <defs
     id="defs4770" />
  <sodipodi:namedview
     pagecolor="#ffffff"
     bordercolor="#666666"
     borderopacity="1"
     objecttolerance="10"
     gridtolerance="10"
     guidetolerance="10"
     inkscape:pageopacity="0"
     inkscape:pageshadow="2"
     inkscape:window-width="1920"
     inkscape:window-height="1018"
     id="namedview4768"
     showgrid="false"
     inkscape:zoom="1.2931507"
     inkscape:cx="112.11784"
     inkscape:cy="161.04473"
     inkscape:window-x="1672"
     inkscape:window-y="-8"
     inkscape:window-maximized="1"
     inkscape:current-layer="svg4766" />
  <g
     id="layer1"
     stroke="none"
     fill="#cfd2cd">
    <path
       d="M100 1600 l0 -1490 1490 0 1490 0 0 1490 0 1490 -1490 0 -1490 0 0 -1490z m2900 0 l0 -1410 -855 0 c-489 0 -855 4 -855 9 0 5 12 16 28 26 65 41 130 129 157 213 9 28 20 52 25 52 10 0 42 82 77 199 27 89 32 97 110 183 103 111 126 171 121 314 l-3 89 60 52 c33 28 77 57 98 64 25 8 45 24 59 48 12 20 27 39 34 44 17 10 64 114 64 142 0 33 -23 47 -64 39 -26 -4 -36 -11 -36 -25 0 -29 -18 -32 -22 -3 -2 21 -12 29 -46 41 -38 12 -44 12 -58 -2 -21 -21 -27 -19 -14 5 9 18 5 22 -42 45 -60 29 -68 30 -68 11 0 -7 -8 -20 -17 -27 -15 -12 -16 -12 -9 6 20 50 20 51 -50 79 -59 24 -69 25 -76 12 -12 -22 -27 -20 -21 2 3 14 -9 24 -57 46 -34 16 -65 25 -69 20 -3 -5 -14 -15 -24 -23 -16 -13 -17 -12 -7 13 5 15 10 29 10 32 0 2 -26 17 -58 33 l-59 30 -21 -22 c-12 -12 -22 -16 -22 -10 0 7 5 15 10 18 20 13 9 24 -56 54 -73 34 -102 38 -110 16 -4 -8 -10 -15 -15 -15 -5 0 -4 12 2 26 5 15 8 28 6 30 -6 7 -118 54 -127 54 -5 0 -12 -9 -15 -20 -3 -11 -11 -20 -16 -20 -5 0 -3 12 5 27 13 27 13 28 -24 44 -46 21 -75 15 -112 -19 -21 -19 -28 -35 -28 -63 0 -32 -3 -36 -20 -32 -27 7 -61 -25 -107 -99 -26 -42 -42 -58 -57 -58 -29 0 -46 -18 -46 -48 0 -48 -31 -82 -122 -135 -60 -34 -71 -20 -35 44 103 184 134 249 168 353 39 120 61 157 148 249 46 49 90 51 131 7 27 -29 35 -31 102 -33 70 -2 73 -1 71 21 -2 12 2 22 7 22 6 0 10 -13 10 -30 0 -27 3 -29 35 -28 20 1 41 -4 47 -10 7 -7 33 -12 59 -12 43 0 48 2 58 30 13 39 23 38 19 -2 -3 -35 14 -49 80 -63 27 -5 32 -4 32 12 1 20 23 53 36 53 4 0 3 -5 -4 -12 -16 -16 -15 -68 1 -72 6 -2 36 -11 66 -21 52 -18 54 -17 68 0 7 11 13 21 13 25 0 3 10 11 23 19 21 13 21 13 5 -5 -9 -10 -19 -31 -23 -45 -6 -23 -2 -27 33 -37 55 -17 70 -15 84 8 18 28 23 25 23 -12 0 -30 4 -33 70 -59 39 -15 75 -28 81 -28 6 -1 17 13 24 29 7 17 16 30 21 30 5 0 2 -11 -7 -25 -9 -14 -14 -31 -11 -38 6 -17 141 -70 145 -57 2 5 8 10 14 10 6 0 8 -6 5 -14 -3 -8 5 -18 19 -25 34 -15 64 -14 70 4 4 8 10 13 15 10 4 -3 6 -12 3 -20 -7 -18 62 -32 85 -18 27 17 62 149 68 253 2 41 14 111 28 155 13 44 26 92 30 108 3 15 28 52 55 82 27 30 56 68 65 85 18 35 13 84 -13 115 -40 47 -251 121 -382 134 -47 5 -103 16 -126 24 -28 10 -83 15 -175 16 -135 2 -303 13 -459 31 -133 16 -149 20 -160 40 -11 20 -1 20 905 20 l915 0 0 -1410z m-2782 423 c38 -34 43 -73 22 -195 -11 -62 -20 -127 -20 -145 0 -22 -6 -36 -20 -43 -20 -11 -20 -8 -20 195 0 113 4 205 9 205 5 0 18 -8 29 -17z m1449 -858 c3 -9 -11 -66 -31 -128 -20 -62 -43 -160 -52 -218 -8 -58 -28 -146 -44 -195 -24 -75 -33 -92 -60 -108 -40 -24 -65 -14 -104 43 -26 37 -29 50 -31 131 -1 63 -7 96 -19 114 -22 34 -20 120 3 169 51 108 313 256 338 192z m-897 -210 c96 -13 157 -59 210 -160 30 -56 31 -64 25 -130 -9 -92 -52 -162 -164 -272 -89 -88 -84 -86 -196 -86 -67 -1 -190 30 -241 60 -23 13 -63 46 -88 73 -48 52 -54 74 -47 182 3 52 64 157 134 234 52 56 66 66 125 83 95 28 132 31 242 16z m650 -495 c0 -6 -11 -32 -24 -58 -31 -60 -74 -84 -142 -80 -42 3 -51 7 -62 31 -13 26 -12 31 10 54 12 14 41 34 63 44 44 19 155 26 155 9z"
       id="path4750" />
  </g>
  <g
     id="layer2"
     style="fill:#4c4344;fill-opacity:1;stroke:none"
     transform="translate(0,0.44490875)">
    <path
       d="M 20,1600 V 30 H 1590 3160 V 1600 3170 H 1590 20 Z m 3060,0 V 110 H 1590 100 v 1490 1490 h 1490 1490 z"
       id="path4753"
       style="fill:#4c4344;fill-opacity:1"
       inkscape:connector-curvature="0" />
    <path
       d="m 1180,2990 c 11,-20 27,-24 160,-40 156,-18 324,-29 459,-31 92,-1 147,-6 175,-16 23,-8 79,-19 126,-24 131,-13 342,-87 382,-134 26,-31 31,-80 13,-115 -9,-17 -38,-55 -65,-85 -27,-30 -52,-67 -55,-82 -4,-16 -17,-64 -30,-108 -14,-44 -26,-114 -28,-155 -6,-104 -41,-236 -68,-253 -23,-14 -92,0 -85,18 3,8 1,17 -3,20 -5,3 -11,-2 -15,-10 -6,-18 -36,-19 -70,-4 -14,7 -22,17 -19,25 3,8 1,14 -5,14 -6,0 -12,-5 -14,-10 -4,-13 -139,40 -145,57 -3,7 2,24 11,38 9,14 12,25 7,25 -5,0 -14,-13 -21,-30 -7,-16 -18,-30 -24,-29 -6,0 -42,13 -81,28 -66,26 -70,29 -70,59 0,37 -5,40 -23,12 -14,-23 -29,-25 -84,-8 -35,10 -39,14 -33,37 4,14 14,35 23,45 16,18 16,18 -5,5 -13,-8 -23,-16 -23,-19 0,-4 -6,-14 -13,-25 -14,-17 -16,-18 -68,0 -30,10 -60,19 -66,21 -16,4 -17,56 -1,72 7,7 8,12 4,12 -13,0 -35,-33 -36,-53 0,-16 -5,-17 -32,-12 -66,14 -83,28 -80,63 4,40 -6,41 -19,2 -10,-28 -15,-30 -58,-30 -26,0 -52,5 -59,12 -6,6 -27,11 -47,10 -32,-1 -35,1 -35,28 0,17 -4,30 -10,30 -5,0 -9,-10 -7,-22 2,-22 -1,-23 -71,-21 -67,2 -75,4 -102,33 -41,44 -85,42 -131,-7 -87,-92 -109,-129 -148,-249 -34,-104 -65,-169 -168,-353 -36,-64 -25,-78 35,-44 91,53 122,87 122,135 0,30 17,48 46,48 15,0 31,16 57,58 46,74 80,106 107,99 17,-4 20,0 20,32 0,28 7,44 28,63 37,34 66,40 112,19 37,-16 37,-17 24,-44 -8,-15 -10,-27 -5,-27 5,0 13,9 16,20 3,11 10,20 15,20 9,0 121,-47 127,-54 2,-2 -1,-15 -6,-30 -6,-14 -7,-26 -2,-26 5,0 11,7 15,15 8,22 37,18 110,-16 65,-30 76,-41 56,-54 -5,-3 -10,-11 -10,-18 0,-6 10,-2 22,10 l 21,22 59,-30 c 32,-16 58,-31 58,-33 0,-3 -5,-17 -10,-32 -10,-25 -9,-26 7,-13 10,8 21,18 24,23 4,5 35,-4 69,-20 48,-22 60,-32 57,-46 -6,-22 9,-24 21,-2 7,13 17,12 76,-12 70,-28 70,-29 50,-79 -7,-18 -6,-18 9,-6 9,7 17,20 17,27 0,19 8,18 68,-11 47,-23 51,-27 42,-45 -13,-24 -7,-26 14,-5 14,14 20,14 58,2 34,-12 44,-20 46,-41 4,-29 22,-26 22,3 0,14 10,21 36,25 41,8 64,-6 64,-39 0,-28 -47,-132 -64,-142 -7,-5 -22,-24 -34,-44 -14,-24 -34,-40 -59,-48 -21,-7 -65,-36 -98,-64 l -60,-52 3,-89 c 5,-143 -18,-203 -121,-314 -78,-86 -83,-94 -110,-183 -35,-117 -67,-199 -77,-199 -5,0 -16,-24 -25,-52 -27,-84 -92,-172 -157,-213 -16,-10 -28,-21 -28,-26 0,-5 366,-9 855,-9 h 855 v 1410 1410 h -915 c -906,0 -916,0 -905,-20 z"
       id="path4755"
       style="fill:#4c4344;fill-opacity:1"
       inkscape:connector-curvature="0" />
    <path
       d="m 180,1835 c 0,-203 0,-206 20,-195 14,7 20,21 20,43 0,18 9,83 20,145 14,86 16,120 8,145 -10,31 -41,67 -59,67 -5,0 -9,-92 -9,-205 z"
       id="path4757"
       style="fill:#4c4344;fill-opacity:1"
       inkscape:connector-curvature="0" />
    <path
       d="m 1554,1160 c -67,-23 -201,-135 -225,-187 -23,-49 -25,-135 -3,-169 12,-18 18,-51 19,-114 2,-81 5,-94 31,-131 39,-57 64,-67 104,-43 27,16 36,33 60,108 16,49 36,137 44,195 9,58 32,156 52,218 20,62 34,119 31,128 -8,20 -49,18 -113,-5 z"
       id="path4759"
       style="fill:#4c4344;fill-opacity:1"
       inkscape:connector-curvature="0" />
    <path
       d="M 635,962 C 613,960 565,950 528,939 469,922 455,912 403,856 333,779 272,674 269,622 c -7,-108 -1,-130 47,-182 25,-27 65,-60 88,-73 51,-30 174,-61 241,-60 112,0 107,-2 196,86 112,110 155,180 164,272 6,66 5,74 -25,130 -63,120 -117,152 -280,168 -14,2 -43,1 -65,-1 z"
       id="path4761"
       style="fill:#4c4344;fill-opacity:1"
       inkscape:connector-curvature="0" />
    <path
       d="m 1265,451 c -22,-10 -51,-30 -63,-44 -22,-23 -23,-28 -10,-54 11,-24 20,-28 62,-31 68,-4 111,20 142,80 13,26 24,52 24,58 0,17 -111,10 -155,-9 z"
       id="path4763"
       style="fill:#4c4344;fill-opacity:1"
       inkscape:connector-curvature="0" />
  </g>
  <g
     transform="matrix(40.295629,0,0,40.295629,46.991596,2964.8764)"
     id="g4557"
     clip-path="none"
     style="fill:#4c4344;fill-opacity:1">
    <g
       aria-label="unsinister"
       transform="matrix(0.26458333,0,0,0.26458333,-17.548216,-73.36079)"
       style="font-style:normal;font-variant:normal;font-weight:normal;font-stretch:normal;font-size:40px;line-height:125%;font-family:Rockwell;-inkscape-font-specification:Rockwell;letter-spacing:0px;word-spacing:0px;fill:#4c4344;fill-opacity:1;stroke:none;stroke-width:1px;stroke-linecap:butt;stroke-linejoin:miter;stroke-opacity:1"
       id="flowRoot4504">
      <path
         inkscape:connector-curvature="0"
         d="m 101.50651,333.78785 h 5.08333 l -1.58333,6.79167 H 92.339845 l 1.125,-4.66667 q -7.458334,5.33334 -13.250001,5.33334 -4.333333,0 -6.875,-2.83334 -2.541667,-2.83333 -2.541667,-6.08333 0,-2.45833 1.375,-8.25 l 3.958334,-17.04167 h -5 l 1.625,-6.79166 h 12.541667 l -5.166667,21.875 q -1.541667,6.625 -1.541667,8.16666 0,1.79167 1.208334,2.91667 1.25,1.125 3.083333,1.125 4.416667,0 12.333334,-5.875 l 4.999995,-21.41667 h -5.999995 l 1.583333,-6.79166 h 13.541672 z"
         style="font-style:italic;font-variant:normal;font-weight:normal;font-stretch:normal;font-size:85.33333588px;line-height:125%;font-family:Rockwell;-inkscape-font-specification:'Rockwell Italic';letter-spacing:-9.58999825px;fill:#4c4344;fill-opacity:1"
         id="path4684" />
      <path
         inkscape:connector-curvature="0"
         d="m 111.08318,300.24619 h 12.83333 l -1.08333,4.70833 q 7.54167,-5.33333 13.125,-5.33333 4.45833,0 6.83333,2.91666 2.41667,2.91667 2.41667,6.25 0,2.79167 -1.125,7.58334 l -4.08333,17.41666 h 5.95833 l -1.625,6.79167 h -13.45833 l 5.79166,-24.70833 q 0.91667,-3.95834 0.91667,-4.95834 0,-1.83333 -1.20833,-3 -1.20834,-1.20833 -2.95834,-1.20833 -4.625,0 -12.25,5.33333 l -5.125,21.75 h 6.04167 l -1.58333,6.79167 h -18.37501 l 1.58334,-6.79167 h 4.79167 l 6.29166,-26.75 h -5.29166 z"
         style="font-style:italic;font-variant:normal;font-weight:normal;font-stretch:normal;font-size:85.33333588px;line-height:125%;font-family:Rockwell;-inkscape-font-specification:'Rockwell Italic';letter-spacing:-9.58999825px;fill:#4c4344;fill-opacity:1"
         id="path4686" />
      <path
         inkscape:connector-curvature="0"
         d="m 141.70151,329.32952 h 6.83334 q 0,2.83333 2.5,4.375 2.5,1.54167 6.54166,1.54167 3.70834,0 5.70834,-1.5 2.04166,-1.5 2.04166,-3.66667 0,-2.04167 -1.75,-3.54167 -1.75,-1.54166 -6.16666,-3.25 -4.45834,-1.75 -6.75,-3.125 -2.29167,-1.375 -3.79167,-3.79166 -1.5,-2.41667 -1.5,-5.125 0,-4.66667 3.875,-8.125 3.875,-3.5 10.66667,-3.5 6.33333,0 10.41666,3.5 l 0.83334,-2.875 h 6.70833 l -2.625,11.20833 h -6.75 q -0.0833,-3.08333 -2.79167,-4.375 -2.70833,-1.29167 -5.91666,-1.29167 -3.33334,0 -5.25,1.33334 -1.875,1.33333 -1.875,3.33333 0,1.625 1.125,2.70833 1.125,1.04167 4.29166,2.25 9,3.45834 11.875,6.58334 2.875,3.125 2.875,7.54166 0,5.25 -4.08333,8.5 -4.04167,3.20834 -11.91667,3.20834 -7.33333,0 -10.375,-3.29167 l -0.58333,2.625 h -6.83333 z"
         style="font-style:italic;font-variant:normal;font-weight:normal;font-stretch:normal;font-size:85.33333588px;line-height:125%;font-family:Rockwell;-inkscape-font-specification:'Rockwell Italic';letter-spacing:-9.58999825px;fill:#4c4344;fill-opacity:1"
         id="path4688" />
      <path
         d="m 173.56985,333.78785 6.29167,-26.75 h -5.54167 l 1.58333,-6.79166 h 13.08334 l -7.875,33.54166 h 5.875 l -1.58334,6.79167 h -17.875 l 1.58334,-6.79167 z"
         style="font-style:italic;font-variant:normal;font-weight:normal;font-stretch:normal;font-size:85.33333588px;line-height:125%;font-family:Rockwell;-inkscape-font-specification:'Rockwell Italic';letter-spacing:-9.58999825px;fill:#4c4344;fill-opacity:1"
         id="path4690"
         inkscape:connector-curvature="0"
         sodipodi:nodetypes="ccccccccccc" />
      <path
         inkscape:connector-curvature="0"
         d="m 189.97985,300.24619 h 12.83334 l -1.08334,4.70833 q 7.54167,-5.33333 13.125,-5.33333 4.45834,0 6.83334,2.91666 2.41666,2.91667 2.41666,6.25 0,2.79167 -1.125,7.58334 l -4.08333,17.41666 h 5.95833 l -1.625,6.79167 h -13.45833 l 5.79167,-24.70833 q 0.91666,-3.95834 0.91666,-4.95834 0,-1.83333 -1.20833,-3 -1.20833,-1.20833 -2.95833,-1.20833 -4.625,0 -12.25,5.33333 l -5.125,21.75 h 6.04166 l -1.58333,6.79167 h -18.375 l 1.58333,-6.79167 h 4.79167 l 6.29167,-26.75 h -5.29167 z"
         style="font-style:italic;font-variant:normal;font-weight:normal;font-stretch:normal;font-size:85.33333588px;line-height:125%;font-family:Rockwell;-inkscape-font-specification:'Rockwell Italic';letter-spacing:-9.58999825px;fill:#4c4344;fill-opacity:1"
         id="path4692" />
      <path
         d="m 225.55653,333.78785 6.29167,-26.75 h -5.54167 l 1.58333,-6.79166 h 13.08334 l -7.875,33.54166 h 5.875 l -1.58334,6.79167 h -17.875 l 1.58334,-6.79167 z"
         style="font-style:italic;font-variant:normal;font-weight:normal;font-stretch:normal;font-size:85.33333588px;line-height:125%;font-family:Rockwell;-inkscape-font-specification:'Rockwell Italic';letter-spacing:-9.58999825px;fill:#4c4344;fill-opacity:1"
         id="path4694"
         inkscape:connector-curvature="0"
         sodipodi:nodetypes="ccccccccccc" />
      <path
         inkscape:connector-curvature="0"
         d="m 235.0082,329.32952 h 6.83333 q 0,2.83333 2.5,4.375 2.5,1.54167 6.54167,1.54167 3.70833,0 5.70833,-1.5 2.04167,-1.5 2.04167,-3.66667 0,-2.04167 -1.75,-3.54167 -1.75,-1.54166 -6.16667,-3.25 -4.45833,-1.75 -6.75,-3.125 -2.29166,-1.375 -3.79166,-3.79166 -1.5,-2.41667 -1.5,-5.125 0,-4.66667 3.875,-8.125 3.875,-3.5 10.66666,-3.5 6.33334,0 10.41667,3.5 l 0.83333,-2.875 h 6.70834 l -2.625,11.20833 h -6.75 q -0.0833,-3.08333 -2.79167,-4.375 -2.70833,-1.29167 -5.91667,-1.29167 -3.33333,0 -5.25,1.33334 -1.875,1.33333 -1.875,3.33333 0,1.625 1.125,2.70833 1.125,1.04167 4.29167,2.25 9,3.45834 11.875,6.58334 2.875,3.125 2.875,7.54166 0,5.25 -4.08333,8.5 -4.04167,3.20834 -11.91667,3.20834 -7.33333,0 -10.375,-3.29167 l -0.58333,2.625 h -6.83334 z"
         style="font-style:italic;font-variant:normal;font-weight:normal;font-stretch:normal;font-size:85.33333588px;line-height:125%;font-family:Rockwell;-inkscape-font-specification:'Rockwell Italic';letter-spacing:-9.58999825px;fill:#4c4344;fill-opacity:1"
         id="path4696" />
      <path
         d="m 280.75152,300.24619 h 5.70833 l -1.58333,6.79166 h -5.70833 l -4.45834,19 c -0.80555,3.44445 -1.20833,5.58334 -1.20833,6.41667 0,1.88889 1,2.83333 3,2.83333 1.38889,0 3.48611,-0.77778 6.29167,-2.33333 l -1.625,6.91667 c -2.55556,1.25 -5.04167,1.875 -7.45834,1.875 -2.27777,0 -4.12499,-0.73611 -5.54166,-2.20834 -1.41667,-1.47222 -2.125,-3.54166 -2.125,-6.20833 0,-1.80555 0.75,-5.80555 2.25,-12 l 3.33333,-14.29167 h -4.58333 l 1.58333,-6.79166 h 4.58333 l 1.91667,-8 7.5037,0.0938 z"
         style="font-style:italic;font-variant:normal;font-weight:normal;font-stretch:normal;font-size:85.33333588px;line-height:125%;font-family:Rockwell;-inkscape-font-specification:'Rockwell Italic';letter-spacing:-9.58999825px;fill:#4c4344;fill-opacity:1"
         id="path4698"
         inkscape:connector-curvature="0"
         sodipodi:nodetypes="cccccssccscscccccccc" />
      <path
         inkscape:connector-curvature="0"
         d="m 319.99486,322.24619 h -31.66667 q -0.29167,1.20833 -0.29167,2.29166 0,5 2.875,7.79167 2.875,2.79167 7.20834,2.79167 6.04167,0 10.25,-5.75 l 7.875,3.375 q -2.375,3.95833 -7.375,6.5 -5,2.5 -10.66667,2.5 -8.70833,0 -13.54167,-5.04167 -4.83333,-5.04167 -4.83333,-12.91667 0,-6.29166 3.16667,-11.91666 3.20833,-5.625 8.54166,-9.16667 5.33334,-3.58333 11.66667,-3.58333 7.66667,0 12.5,5.04166 4.875,5 4.875,13.08334 0,2.625 -0.58333,5 z m -7.125,-5.66667 q 0.125,-1.29167 0.125,-2.08333 0,-3.33334 -2.66667,-6.04167 -2.625,-2.75 -7,-2.75 -4.45833,0 -8.08333,2.95833 -3.58334,2.91667 -5.41667,7.91667 z"
         style="font-style:italic;font-variant:normal;font-weight:normal;font-stretch:normal;font-size:85.33333588px;line-height:125%;font-family:Rockwell;-inkscape-font-specification:'Rockwell Italic';letter-spacing:-9.58999825px;fill:#4c4344;fill-opacity:1"
         id="path4700" />
      <path
         inkscape:connector-curvature="0"
         d="m 326.8632,333.78785 h 6.66667 l -1.625,6.79167 H 312.3632 l 1.58333,-6.79167 h 5.29167 l 6.20833,-26.75 h -6.25 l 1.66667,-6.79166 h 13.08333 l -2.66666,11.41666 q 3.79166,-6.33333 8.08333,-9.16666 4.33333,-2.875 10.16667,-2.875 h 1.79166 l -1.75,7.41666 q -1.125,-0.125 -1.91666,-0.125 -5.29167,0 -9.16667,2.45834 -3.875,2.41666 -6.16667,6.58333 -2.29166,4.16667 -3.79166,10.58333 z"
         style="font-style:italic;font-variant:normal;font-weight:normal;font-stretch:normal;font-size:85.33333588px;line-height:125%;font-family:Rockwell;-inkscape-font-specification:'Rockwell Italic';letter-spacing:-9.58999825px;fill:#4c4344;fill-opacity:1"
         id="path4702" />
    </g>
    <path
       inkscape:connector-curvature="0"
       id="path4550"
       d="M 1.1788016,10.230828 H 23.059498 v 1.46466 H 1.204127 Z"
       style="fill:#4c4344;fill-opacity:1;fill-rule:evenodd;stroke:none;stroke-width:0.27394536px;stroke-linecap:butt;stroke-linejoin:miter;stroke-opacity:1" />
  </g>
</svg>
